<svg width="107" height="22" viewBox="0 0 107 22" fill="none" xmlns="http://www.w3.org/2000/svg">
<path d="M77.3911 0.543129H78.2651C79.0934 0.543319 79.7651 1.21482 79.7651 2.04313V19.465C79.7649 20.1378 79.3164 20.7283 78.6684 20.9093L78.3198 21.007C78.0671 21.0776 77.7996 21.0806 77.5454 21.0158L77.021 20.882C76.3564 20.7127 75.8911 20.1137 75.8911 19.4279V2.04313C75.8911 1.2147 76.5627 0.543129 77.3911 0.543129Z" fill="black" stroke="black"/>
<path d="M2 0.542953H2.87402C3.70229 0.543145 4.37402 1.21465 4.37402 2.04295V19.4648C4.37383 20.1376 3.92535 20.7281 3.27734 20.9092L2.92871 21.0068C2.676 21.0774 2.40856 21.0804 2.1543 21.0156L1.62988 20.8818C0.965306 20.7125 0.5 20.1135 0.5 19.4277V2.04295C0.5 1.21453 1.17157 0.542953 2 0.542953Z" fill="black" stroke="black"/>
<path d="M59.1546 19.2301C59.1544 20.3089 58.4273 21.2511 57.3866 21.5218C57.0133 21.6189 56.6219 21.6229 56.2468 21.5331L56.2103 21.5247C55.0793 21.2538 54.2806 20.239 54.2806 19.0722V9.27206H59.1546V19.2301Z" fill="black"/>
<path d="M71.0737 19.2301C71.0735 20.3089 70.3464 21.2511 69.3057 21.5218C68.9324 21.6189 68.541 21.6229 68.1659 21.5331L68.1294 21.5247C66.9984 21.2538 66.1997 20.239 66.1997 19.0722V9.27206H71.0737V19.2301Z" fill="black"/>
<path d="M44.728 0.043129C46.0738 0.0431997 47.165 1.13811 47.165 2.48857V19.2625C47.1648 20.3414 46.4377 21.2835 45.397 21.5543C45.0237 21.6513 44.6323 21.6553 44.2572 21.5655L44.2207 21.5571C43.0897 21.2862 42.2911 20.2714 42.2911 19.1046V2.48857C42.2911 1.13806 43.3822 0.043129 44.728 0.043129Z" fill="black"/>
<path d="M63.9862 0.043129C68.7112 0.0433123 71.0737 2.92217 71.0737 8.67833V15.9286H66.2054V9.99836C66.2054 7.97851 65.9601 6.54943 65.4718 5.71249C64.9692 4.86205 64.1436 4.43632 62.9954 4.43618C61.6596 4.43618 60.6851 4.94105 60.075 5.95083C59.4645 6.96083 59.1602 8.58353 59.1601 10.8191V15.9286H54.2904V10.0632C54.2904 6.31257 53.2137 4.43618 51.0594 4.43618C49.695 4.43622 48.7004 4.94815 48.0757 5.97198C47.5562 6.82369 47.2568 8.08525 47.1692 9.75438V2.54216C48.0892 1.57926 48.877 0.9271 49.5303 0.58468C50.234 0.224166 51.1168 0.0431563 52.1795 0.043129C54.5494 0.043129 56.4237 1.0824 57.8025 3.15987C59.3246 1.0824 61.3864 0.043129 63.9862 0.043129Z" fill="black"/>
<path d="M26.0546 19.2301C26.0544 20.3089 25.3273 21.2511 24.2866 21.5218C23.9133 21.6189 23.5219 21.6229 23.1468 21.5331L23.1102 21.5247C21.9793 21.2538 21.1806 20.239 21.1806 19.0722V9.27206H26.0546V19.2301Z" fill="black"/>
<path d="M37.9737 19.2301C37.9735 20.3089 37.2464 21.2511 36.2057 21.5218C35.8324 21.6189 35.441 21.6229 35.0659 21.5331L35.0293 21.5247C33.8984 21.2538 33.0997 20.239 33.0997 19.0722V9.27206H37.9737V19.2301Z" fill="black"/>
<path d="M11.628 0.043129C12.9738 0.0431997 14.065 1.13811 14.065 2.48857V19.2625C14.0648 20.3414 13.3377 21.2835 12.297 21.5543C11.9237 21.6513 11.5323 21.6553 11.1572 21.5655L11.1207 21.5571C9.98967 21.2862 9.19104 20.2714 9.19104 19.1046V2.48857C9.19104 1.13806 10.2822 0.043129 11.628 0.043129Z" fill="black"/>
<path d="M30.8862 0.043129C35.6111 0.0433123 37.9737 2.92217 37.9737 8.67833V15.9286H33.1053V9.99836C33.1053 7.97851 32.86 6.54943 32.3717 5.71249C31.8692 4.86205 31.0435 4.43632 29.8954 4.43618C28.5596 4.43618 27.5851 4.94105 26.975 5.95083C26.3644 6.96083 26.0601 8.58353 26.0601 10.8191V15.9286H21.1904V10.0632C21.1904 6.31257 20.1136 4.43618 17.9593 4.43618C16.5949 4.43622 15.6004 4.94815 14.9757 5.97198C14.4562 6.82369 14.1567 8.08525 14.0692 9.75438V2.54216C14.9892 1.57926 15.777 0.9271 16.4303 0.58468C17.134 0.224166 18.0167 0.0431563 19.0794 0.043129C21.4494 0.043129 23.3237 1.0824 24.7025 3.15987C26.2246 1.0824 28.2864 0.043129 30.8862 0.043129Z" fill="black"/>
<path d="M106.332 10.7935C106.332 16.7546 101.5 21.587 95.5389 21.587C89.5778 21.587 84.7454 16.7546 84.7454 10.7935C84.7454 4.8324 89.5778 -2.58436e-06 95.5389 -2.58436e-06C101.5 -2.58436e-06 106.332 4.8324 106.332 10.7935ZM89.607 10.7935C89.607 14.0696 92.2628 16.7254 95.5389 16.7254C98.815 16.7254 101.471 14.0696 101.471 10.7935C101.471 7.51736 98.815 4.86154 95.5389 4.86154C92.2628 4.86154 89.607 7.51736 89.607 10.7935Z" fill="black"/>
</svg>
